<svg xmlns="http://www.w3.org/2000/svg" xmlns:xlink="http://www.w3.org/1999/xlink" width="1100" zoomAndPan="magnify" viewBox="0 0 824.88 386.250002" height="515" preserveAspectRatio="xMidYMid meet" version="1.0"><defs><clipPath id="8ad5529d27"><path d="M 417 7.457031 L 763 7.457031 L 763 377 L 417 377 Z M 417 7.457031 " clip-rule="nonzero"/></clipPath><clipPath id="9330f90a50"><path d="M 630 91 L 785.277344 91 L 785.277344 291 L 630 291 Z M 630 91 " clip-rule="nonzero"/></clipPath><clipPath id="3b69e93aad"><path d="M 42 7.457031 L 388 7.457031 L 388 377 L 42 377 Z M 42 7.457031 " clip-rule="nonzero"/></clipPath><clipPath id="04e057baa7"><path d="M 19.511719 91 L 175 91 L 175 291 L 19.511719 291 Z M 19.511719 91 " clip-rule="nonzero"/></clipPath><clipPath id="796203a2ce"><path d="M 294.59375 38.550781 L 510.175781 38.550781 L 510.175781 254.132812 L 294.59375 254.132812 Z M 294.59375 38.550781 " clip-rule="nonzero"/></clipPath></defs><g clip-path="url(#8ad5529d27)"><path fill="#ffffff" d="M 729.289062 212.921875 C 747.476562 169.226562 738.332031 120.148438 742.195312 74.523438 C 743.109375 63.242188 744.835938 52.066406 747.984375 41.292969 C 751.238281 30.523438 756.011719 20.257812 762.515625 11.113281 C 763.125 10.199219 763.023438 8.878906 762.109375 8.167969 C 761.195312 7.457031 759.875 7.660156 759.164062 8.574219 C 756.625 11.925781 754.285156 15.484375 752.152344 19.140625 C 743.820312 33.46875 739.042969 49.625 736.300781 65.882812 C 734.878906 74.113281 734.066406 82.449219 733.453125 90.78125 C 732.945312 97.691406 734.472656 108.15625 729.289062 113.542969 C 718.519531 124.617188 708.964844 99.417969 706.832031 92.101562 C 702.359375 77.0625 702.359375 61.210938 700.9375 45.664062 C 699.921875 34.6875 698.09375 23.511719 693.417969 13.144531 C 692.910156 12.128906 691.792969 11.621094 690.777344 12.027344 C 689.660156 12.433594 689.152344 13.652344 689.558594 14.773438 C 693.316406 24.628906 694.433594 35.296875 694.839844 46.070312 C 695.246094 56.839844 694.839844 67.714844 695.757812 78.890625 C 696.773438 92.8125 700.632812 107.140625 708.660156 118.621094 C 713.742188 125.9375 720.855469 131.121094 724.917969 139.25 C 730.304688 150.121094 730 160.792969 727.96875 172.375 C 725.835938 184.367188 722.582031 196.257812 717.5 207.332031 C 709.066406 225.722656 694.128906 240.253906 676.753906 250.214844 C 658.667969 260.476562 638.445312 266.371094 618.121094 270.332031 C 607.757812 272.265625 597.292969 273.789062 586.722656 275.109375 C 580.625 275.921875 567.316406 280.191406 562.640625 274.601562 C 554.308594 264.847656 574.632812 246.25 579.8125 239.136719 C 586.519531 229.890625 593.632812 219.628906 605.015625 216.476562 C 607.148438 215.96875 609.382812 215.867188 611.71875 216.171875 C 614.363281 216.375 614.972656 212.617188 612.332031 212.007812 C 590.789062 207.636719 575.648438 230.90625 562.742188 244.320312 C 549.632812 257.9375 538.355469 275.3125 521.285156 284.355469 C 515.085938 287.609375 507.261719 288.421875 500.554688 290.65625 C 493.339844 293.09375 486.328125 295.839844 479.417969 298.988281 C 474.539062 301.324219 468.851562 307.015625 464.480469 300.714844 C 459.5 293.398438 467.632812 277.34375 470.578125 270.332031 C 478.605469 251.535156 491.207031 234.363281 507.464844 221.355469 C 508.277344 220.644531 508.480469 219.425781 507.871094 218.507812 C 507.261719 217.492188 505.941406 217.289062 504.921875 217.898438 C 485.210938 230.90625 469.359375 249.605469 458.992188 270.839844 C 454.117188 280.902344 448.527344 293.296875 447.714844 304.578125 C 447.308594 309.554688 448.832031 313.113281 446.394531 317.789062 C 443.648438 323.070312 438.570312 327.035156 434.707031 331.402344 C 428.304688 338.71875 422.921875 346.847656 418.652344 355.589844 C 415.097656 362.902344 418.449219 371.746094 425.867188 374.894531 C 433.082031 378.042969 441.515625 374.691406 444.667969 367.476562 C 461.941406 328.152344 506.347656 310.878906 546.28125 302.953125 C 590.992188 293.90625 640.679688 290.757812 681.226562 266.371094 C 701.851562 254.175781 719.941406 235.683594 729.289062 212.921875 Z M 729.289062 212.921875 " fill-opacity="1" fill-rule="nonzero"/></g><g clip-path="url(#9330f90a50)"><path fill="#ffffff" d="M 784.667969 92.40625 C 783.957031 91.492188 782.636719 91.390625 781.722656 92.101562 C 771.460938 100.128906 768.410156 113.949219 767.089844 126.140625 C 766.074219 136 765.464844 145.449219 763.53125 155 C 758.351562 180.097656 746.765625 203.980469 730.203125 223.386719 C 728.476562 225.417969 726.75 227.351562 724.917969 229.28125 C 715.0625 245.234375 700.429688 259.257812 682.648438 269.621094 C 666.492188 279.375 648.910156 285.777344 630.722656 290.554688 C 672.691406 285.269531 712.523438 263.625 738.433594 230.09375 C 755.199219 208.550781 766.175781 183.046875 770.542969 156.320312 C 772.070312 146.667969 772.375 136.40625 772.882812 126.75 C 773.695312 115.371094 775.523438 103.175781 784.464844 95.453125 C 785.277344 94.539062 785.378906 93.320312 784.667969 92.40625 Z M 784.667969 92.40625 " fill-opacity="1" fill-rule="nonzero"/></g><g clip-path="url(#3b69e93aad)"><path fill="#ffffff" d="M 75.90625 212.921875 C 57.71875 169.226562 66.863281 120.148438 63 74.523438 C 62.085938 63.242188 60.359375 52.066406 57.210938 41.292969 C 53.957031 30.523438 49.179688 20.257812 42.679688 11.113281 C 42.070312 10.199219 42.171875 8.878906 43.085938 8.167969 C 44 7.457031 45.320312 7.660156 46.03125 8.574219 C 48.570312 11.925781 50.910156 15.484375 53.042969 19.140625 C 61.375 33.46875 66.152344 49.625 68.894531 65.882812 C 70.316406 74.113281 71.128906 82.449219 71.738281 90.78125 C 72.246094 97.691406 70.722656 108.15625 75.90625 113.542969 C 86.675781 124.617188 96.230469 99.417969 98.363281 92.101562 C 102.835938 77.0625 102.835938 61.210938 104.257812 45.664062 C 105.273438 34.6875 107.101562 23.511719 111.777344 13.144531 C 112.285156 12.128906 113.402344 11.621094 114.417969 12.027344 C 115.535156 12.433594 116.042969 13.652344 115.636719 14.773438 C 111.878906 24.628906 110.761719 35.296875 110.351562 46.070312 C 109.945312 56.839844 110.351562 67.714844 109.4375 78.890625 C 108.421875 92.8125 104.5625 107.140625 96.535156 118.621094 C 91.453125 125.9375 84.339844 131.121094 80.277344 139.25 C 74.890625 150.121094 75.195312 160.792969 77.226562 172.375 C 79.359375 184.367188 82.613281 196.257812 87.695312 207.332031 C 96.128906 225.722656 111.066406 240.253906 128.441406 250.214844 C 146.527344 260.476562 166.75 266.371094 187.074219 270.332031 C 197.4375 272.265625 207.902344 273.789062 218.472656 275.109375 C 224.570312 275.921875 237.878906 280.191406 242.554688 274.601562 C 250.886719 264.847656 230.5625 246.25 225.382812 239.136719 C 218.675781 229.890625 211.5625 219.628906 200.179688 216.476562 C 198.046875 215.96875 195.8125 215.867188 193.472656 216.171875 C 190.832031 216.375 190.222656 212.617188 192.863281 212.007812 C 214.40625 207.636719 229.546875 230.90625 242.453125 244.320312 C 255.5625 257.9375 266.839844 275.3125 283.910156 284.355469 C 290.109375 287.609375 297.933594 288.421875 304.640625 290.65625 C 311.855469 293.09375 318.867188 295.839844 325.777344 298.988281 C 330.652344 301.324219 336.34375 307.015625 340.714844 300.714844 C 345.691406 293.398438 337.5625 277.34375 334.617188 270.332031 C 326.589844 251.535156 313.988281 234.363281 297.730469 221.355469 C 296.917969 220.644531 296.714844 219.425781 297.324219 218.507812 C 297.933594 217.492188 299.253906 217.289062 300.269531 217.898438 C 319.984375 230.90625 335.835938 249.605469 346.203125 270.839844 C 351.078125 280.902344 356.667969 293.296875 357.480469 304.578125 C 357.886719 309.554688 356.363281 313.113281 358.800781 317.789062 C 361.546875 323.070312 366.625 327.035156 370.488281 331.402344 C 376.890625 338.71875 382.273438 346.847656 386.542969 355.589844 C 390.097656 362.902344 386.746094 371.746094 379.328125 374.894531 C 372.113281 378.042969 363.679688 374.691406 360.527344 367.476562 C 343.253906 328.152344 298.847656 310.878906 258.914062 302.953125 C 214.203125 293.90625 164.515625 290.757812 123.96875 266.371094 C 103.242188 254.175781 85.152344 235.683594 75.90625 212.921875 Z M 75.90625 212.921875 " fill-opacity="1" fill-rule="nonzero"/></g><g clip-path="url(#04e057baa7)"><path fill="#ffffff" d="M 20.425781 92.40625 C 21.136719 91.492188 22.457031 91.390625 23.371094 92.101562 C 33.632812 100.128906 36.683594 113.949219 38.003906 126.140625 C 39.019531 136 39.628906 145.449219 41.558594 155 C 46.742188 180.097656 58.328125 203.980469 74.890625 223.386719 C 76.617188 225.417969 78.34375 227.351562 80.175781 229.28125 C 90.132812 245.132812 104.765625 259.15625 122.546875 269.519531 C 138.703125 279.273438 156.285156 285.675781 174.472656 290.453125 C 132.503906 285.167969 92.671875 263.523438 66.761719 229.992188 C 49.996094 208.449219 39.019531 182.945312 34.652344 156.21875 C 33.125 146.566406 32.820312 136.304688 32.3125 126.648438 C 31.5 115.269531 29.671875 103.074219 20.730469 95.351562 C 19.816406 94.539062 19.714844 93.320312 20.425781 92.40625 Z M 20.425781 92.40625 " fill-opacity="1" fill-rule="nonzero"/></g><g clip-path="url(#796203a2ce)"><path fill="#ffffff" d="M 506.609375 142.574219 L 494.679688 142.574219 L 501.972656 135.929688 C 503.121094 134.878906 503.179688 133.121094 502.105469 131.996094 C 501.035156 130.882812 499.238281 130.820312 498.085938 131.867188 L 486.34375 142.574219 L 480.292969 142.574219 L 487.585938 135.929688 C 488.738281 134.878906 488.796875 133.121094 487.726562 131.996094 C 486.648438 130.882812 484.847656 130.820312 483.703125 131.867188 L 471.960938 142.574219 L 457.976562 142.574219 L 467.65625 133.746094 C 469.042969 132.484375 469.113281 130.359375 467.820312 129.007812 C 466.53125 127.65625 464.355469 127.585938 462.964844 128.847656 L 447.917969 142.574219 L 440.617188 142.574219 L 450.296875 133.746094 C 451.683594 132.484375 451.757812 130.359375 450.460938 129.007812 C 449.167969 127.65625 446.992188 127.585938 445.609375 128.847656 L 430.566406 142.574219 L 421.242188 142.574219 C 420.78125 140.34375 419.90625 138.265625 418.738281 136.378906 L 426.792969 128.320312 L 441.300781 127.835938 C 442.785156 127.785156 443.949219 126.546875 443.890625 125.054688 C 443.847656 123.5625 442.597656 122.40625 441.109375 122.449219 L 432.371094 122.75 L 436.417969 118.695312 L 450.921875 118.214844 C 452.410156 118.15625 453.566406 116.917969 453.519531 115.425781 C 453.472656 113.9375 452.230469 112.777344 450.738281 112.824219 L 441.992188 113.121094 L 447.03125 108.082031 L 461.53125 107.597656 C 463.015625 107.550781 464.179688 106.300781 464.128906 104.824219 C 464.085938 103.324219 462.835938 102.164062 461.347656 102.21875 L 452.609375 102.515625 L 456.660156 98.460938 L 471.15625 97.96875 C 472.644531 97.914062 473.808594 96.671875 473.757812 95.195312 C 473.707031 93.703125 472.460938 92.542969 470.96875 92.589844 L 462.238281 92.890625 L 468.480469 86.628906 L 482.980469 86.144531 C 484.46875 86.089844 485.636719 84.839844 485.585938 83.363281 C 485.53125 81.871094 484.292969 80.707031 482.804688 80.757812 L 474.0625 81.054688 L 479.472656 75.65625 C 480.988281 74.132812 480.988281 71.660156 479.472656 70.140625 C 477.945312 68.621094 475.476562 68.621094 473.953125 70.140625 L 468.359375 75.734375 L 468.765625 66.722656 C 468.835938 65.253906 467.699219 64.03125 466.234375 64 C 464.761719 63.972656 463.515625 65.132812 463.449219 66.605469 L 462.777344 81.316406 L 456.523438 87.574219 L 456.933594 78.550781 C 457.003906 77.085938 455.871094 75.863281 454.398438 75.835938 C 452.929688 75.800781 451.691406 76.964844 451.617188 78.433594 L 450.949219 93.148438 L 446.898438 97.1875 L 447.3125 88.179688 C 447.378906 86.707031 446.242188 85.488281 444.773438 85.460938 C 443.316406 85.429688 442.0625 86.59375 441.992188 88.058594 L 441.320312 102.769531 L 436.292969 107.808594 L 436.699219 98.789062 C 436.769531 97.320312 435.625 96.109375 434.164062 96.066406 C 432.699219 96.035156 431.453125 97.207031 431.382812 98.675781 L 430.707031 113.382812 L 426.664062 117.433594 L 427.074219 108.414062 C 427.140625 106.949219 426 105.730469 424.535156 105.695312 C 423.074219 105.664062 421.824219 106.835938 421.753906 108.304688 L 421.085938 123.003906 L 413.351562 130.738281 C 411.25 129.285156 408.832031 128.257812 406.230469 127.742188 L 406.230469 118.082031 L 419.933594 103.417969 C 421.234375 102.027344 421.15625 99.859375 419.769531 98.5625 C 418.382812 97.265625 416.214844 97.339844 414.914062 98.730469 L 406.230469 108.023438 L 406.230469 100.71875 L 419.933594 86.054688 C 421.234375 84.671875 421.15625 82.5 419.769531 81.199219 C 418.382812 79.90625 416.214844 79.984375 414.914062 81.367188 L 406.230469 90.664062 L 406.230469 76.765625 L 416.921875 65.320312 C 417.992188 64.171875 417.929688 62.375 416.789062 61.304688 C 415.632812 60.226562 413.835938 60.285156 412.765625 61.4375 L 406.230469 68.429688 L 406.230469 62.375 L 416.921875 50.9375 C 417.992188 49.785156 417.929688 47.992188 416.789062 46.917969 C 415.632812 45.847656 413.835938 45.902344 412.765625 47.054688 L 406.230469 54.046875 L 406.230469 42.414062 C 406.230469 40.265625 404.484375 38.523438 402.328125 38.523438 C 400.175781 38.523438 398.429688 40.265625 398.429688 42.414062 L 398.429688 54.335938 L 391.777344 47.054688 C 390.734375 45.902344 388.972656 45.847656 387.855469 46.917969 C 386.738281 47.992188 386.667969 49.785156 387.71875 50.9375 L 398.429688 62.679688 L 398.429688 68.730469 L 391.777344 61.4375 C 390.734375 60.285156 388.972656 60.226562 387.855469 61.304688 C 386.738281 62.375 386.667969 64.171875 387.71875 65.320312 L 398.429688 77.0625 L 398.429688 91.046875 L 389.59375 81.367188 C 388.328125 79.984375 386.21875 79.90625 384.863281 81.199219 C 383.507812 82.5 383.4375 84.671875 384.699219 86.054688 L 398.429688 101.101562 L 398.429688 108.402344 L 389.59375 98.730469 C 388.328125 97.339844 386.21875 97.265625 384.863281 98.5625 C 383.507812 99.859375 383.4375 102.027344 384.699219 103.417969 L 398.429688 118.46875 L 398.429688 127.835938 C 396.136719 128.339844 393.988281 129.253906 392.09375 130.503906 L 384.363281 122.777344 L 383.875 108.28125 C 383.824219 106.792969 382.574219 105.632812 381.097656 105.683594 C 379.609375 105.730469 378.4375 106.972656 378.488281 108.460938 L 378.785156 117.207031 L 374.742188 113.15625 L 374.253906 98.660156 C 374.199219 97.171875 372.949219 96.007812 371.46875 96.054688 C 369.980469 96.109375 368.8125 97.347656 368.863281 98.839844 L 369.164062 107.578125 L 364.128906 102.542969 L 363.640625 88.046875 C 363.589844 86.5625 362.339844 85.398438 360.855469 85.449219 C 359.371094 85.496094 358.207031 86.738281 358.253906 88.230469 L 358.546875 96.96875 L 354.5 92.917969 L 354.015625 78.425781 C 353.964844 76.933594 352.71875 75.769531 351.226562 75.820312 C 349.746094 75.875 348.578125 77.117188 348.628906 78.605469 L 348.925781 87.34375 L 342.675781 81.089844 L 342.179688 66.59375 C 342.132812 65.105469 340.886719 63.941406 339.402344 63.988281 C 337.914062 64.042969 336.75 65.285156 336.796875 66.773438 L 337.09375 75.515625 L 331.746094 70.171875 C 330.226562 68.640625 327.757812 68.640625 326.234375 70.171875 C 324.714844 71.6875 324.714844 74.15625 326.234375 75.683594 L 331.777344 81.226562 L 322.761719 80.808594 C 321.292969 80.75 320.070312 81.882812 320.046875 83.339844 C 320.015625 84.8125 321.179688 86.054688 322.652344 86.125 L 337.355469 86.796875 L 343.609375 93.058594 L 334.59375 92.636719 C 333.121094 92.566406 331.90625 93.710938 331.875 95.183594 C 331.839844 96.644531 333.011719 97.886719 334.476562 97.957031 L 349.1875 98.628906 L 353.234375 102.6875 L 344.214844 102.265625 C 342.742188 102.195312 341.535156 103.339844 341.503906 104.800781 C 341.464844 106.269531 342.625 107.519531 344.105469 107.578125 L 358.808594 108.257812 L 363.847656 113.292969 L 354.828125 112.878906 C 353.359375 112.804688 352.144531 113.941406 352.113281 115.417969 C 352.078125 116.878906 353.242188 118.121094 354.710938 118.199219 L 369.421875 118.863281 L 373.472656 122.921875 L 364.457031 122.5 C 362.980469 122.441406 361.765625 123.570312 361.734375 125.035156 C 361.710938 126.503906 362.863281 127.753906 364.339844 127.824219 L 379.042969 128.492188 L 386.574219 136.019531 C 385.289062 137.984375 384.347656 140.203125 383.847656 142.574219 L 375.648438 142.574219 L 360.984375 128.863281 C 359.597656 127.574219 357.414062 127.644531 356.121094 129.035156 C 354.828125 130.417969 354.902344 132.59375 356.292969 133.882812 L 365.585938 142.574219 L 358.289062 142.574219 L 343.613281 128.863281 C 342.238281 127.574219 340.0625 127.644531 338.765625 129.035156 C 337.464844 130.417969 337.546875 132.59375 338.929688 133.882812 L 348.230469 142.574219 L 334.324219 142.574219 L 322.886719 131.886719 C 321.738281 130.816406 319.933594 130.875 318.863281 132.027344 C 317.792969 133.167969 317.847656 134.964844 319 136.050781 L 325.984375 142.574219 L 319.933594 142.574219 L 308.503906 131.886719 C 307.351562 130.816406 305.546875 130.875 304.472656 132.027344 C 303.40625 133.167969 303.464844 134.964844 304.609375 136.050781 L 311.601562 142.574219 L 298.488281 142.574219 C 296.335938 142.574219 294.589844 144.324219 294.589844 146.480469 C 294.589844 148.636719 296.335938 150.371094 298.488281 150.371094 L 311.898438 150.371094 L 304.609375 157.03125 C 303.464844 158.070312 303.40625 159.839844 304.472656 160.953125 C 305.546875 162.074219 307.351562 162.136719 308.503906 161.085938 L 320.238281 150.371094 L 326.285156 150.371094 L 319 157.03125 C 317.847656 158.070312 317.792969 159.839844 318.863281 160.953125 C 319.933594 162.074219 321.738281 162.136719 322.886719 161.085938 L 334.625 150.371094 L 348.605469 150.371094 L 338.929688 159.207031 C 337.546875 160.464844 337.464844 162.589844 338.765625 163.945312 C 340.0625 165.304688 342.238281 165.375 343.613281 164.105469 L 358.667969 150.371094 L 365.972656 150.371094 L 356.292969 159.207031 C 354.902344 160.464844 354.828125 162.589844 356.121094 163.945312 C 357.414062 165.304688 359.597656 165.375 360.984375 164.105469 L 376.027344 150.371094 L 383.847656 150.371094 C 384.375 152.898438 385.402344 155.234375 386.808594 157.285156 L 379.402344 164.6875 L 364.910156 165.175781 C 363.414062 165.222656 362.253906 166.476562 362.304688 167.953125 C 362.351562 169.449219 363.597656 170.605469 365.082031 170.558594 L 373.828125 170.269531 L 369.777344 174.316406 L 355.28125 174.800781 C 353.789062 174.863281 352.628906 176.105469 352.683594 177.582031 C 352.726562 179.070312 353.96875 180.230469 355.460938 180.191406 L 364.199219 179.882812 L 359.164062 184.933594 L 344.667969 185.410156 C 343.179688 185.46875 342.019531 186.707031 342.066406 188.1875 C 342.117188 189.683594 343.367188 190.84375 344.847656 190.792969 L 353.59375 190.5 L 349.546875 194.546875 L 335.042969 195.042969 C 333.558594 195.09375 332.394531 196.335938 332.441406 197.828125 C 332.496094 199.304688 333.738281 200.46875 335.222656 200.429688 L 343.96875 200.128906 L 337.710938 206.378906 L 323.214844 206.863281 C 321.722656 206.917969 320.5625 208.171875 320.609375 209.648438 C 320.660156 211.136719 321.90625 212.296875 323.390625 212.253906 L 332.136719 211.964844 L 326.792969 217.308594 C 325.265625 218.828125 325.265625 221.289062 326.792969 222.816406 C 328.308594 224.339844 330.777344 224.339844 332.300781 222.816406 L 337.84375 217.277344 L 337.429688 226.289062 C 337.363281 227.769531 338.5 228.976562 339.96875 229.007812 C 341.433594 229.035156 342.679688 227.878906 342.75 226.40625 L 343.417969 211.695312 L 349.671875 205.445312 L 349.261719 214.457031 C 349.1875 215.925781 350.332031 217.144531 351.796875 217.179688 C 353.265625 217.207031 354.511719 216.042969 354.582031 214.578125 L 355.25 199.863281 L 359.300781 195.816406 L 358.882812 204.828125 C 358.816406 206.296875 359.953125 207.523438 361.425781 207.546875 C 362.886719 207.582031 364.132812 206.417969 364.203125 204.949219 L 364.875 190.246094 L 369.90625 185.199219 L 369.5 194.21875 C 369.433594 195.6875 370.570312 196.898438 372.03125 196.941406 C 373.5 196.972656 374.746094 195.800781 374.816406 194.339844 L 375.488281 179.628906 L 379.535156 175.582031 L 379.125 184.59375 C 379.058594 186.0625 380.199219 187.289062 381.660156 187.3125 C 383.121094 187.34375 384.375 186.183594 384.441406 184.714844 L 385.109375 170 L 392.453125 162.660156 C 394.265625 163.800781 396.273438 164.652344 398.429688 165.113281 L 398.429688 173.375 L 384.71875 188.039062 C 383.425781 189.429688 383.5 191.609375 384.886719 192.902344 C 386.269531 194.191406 388.441406 194.125 389.746094 192.734375 L 398.429688 183.441406 L 398.429688 190.746094 L 384.71875 205.410156 C 383.425781 206.789062 383.5 208.960938 384.886719 210.253906 C 386.269531 211.558594 388.441406 211.472656 389.746094 210.097656 L 398.429688 200.796875 L 398.429688 214.707031 L 387.738281 226.136719 C 386.667969 227.289062 386.730469 229.085938 387.875 230.164062 C 389.019531 231.234375 390.824219 231.171875 391.898438 230.023438 L 398.429688 223.039062 L 398.429688 229.078125 L 387.738281 240.519531 C 386.667969 241.671875 386.730469 243.472656 387.875 244.542969 C 389.019531 245.621094 390.824219 245.566406 391.898438 244.410156 L 398.429688 237.421875 L 398.429688 250.53125 C 398.429688 252.6875 400.175781 254.433594 402.328125 254.433594 C 404.484375 254.433594 406.230469 252.6875 406.230469 250.53125 L 406.230469 237.117188 L 412.878906 244.410156 C 413.921875 245.566406 415.6875 245.621094 416.800781 244.542969 C 417.917969 243.472656 417.988281 241.671875 416.941406 240.519531 L 406.230469 228.785156 L 406.230469 222.734375 L 412.878906 230.023438 C 413.921875 231.171875 415.6875 231.234375 416.800781 230.164062 C 417.917969 229.085938 417.988281 227.289062 416.941406 226.136719 L 406.230469 214.398438 L 406.230469 200.410156 L 415.066406 210.097656 C 416.320312 211.472656 418.445312 211.558594 419.792969 210.253906 C 421.148438 208.960938 421.21875 206.789062 419.957031 205.410156 L 406.230469 190.355469 L 406.230469 183.054688 L 415.066406 192.734375 C 416.320312 194.125 418.445312 194.191406 419.792969 192.902344 C 421.148438 191.609375 421.21875 189.429688 419.957031 188.039062 L 406.230469 172.996094 L 406.230469 165.210938 C 408.691406 164.738281 410.980469 163.777344 413.003906 162.4375 L 420.726562 170.175781 L 421.21875 184.671875 C 421.269531 186.160156 422.515625 187.328125 424 187.277344 C 425.484375 187.21875 426.652344 185.976562 426.601562 184.496094 L 426.300781 175.75 L 430.351562 179.796875 L 430.84375 194.300781 C 430.894531 195.78125 432.144531 196.957031 433.628906 196.898438 C 435.109375 196.855469 436.277344 195.601562 436.226562 194.113281 L 435.929688 185.378906 L 440.964844 190.40625 L 441.457031 204.910156 C 441.503906 206.402344 442.75 207.558594 444.234375 207.515625 C 445.71875 207.464844 446.886719 206.210938 446.839844 204.726562 L 446.539062 195.992188 L 450.589844 200.027344 L 451.082031 214.535156 C 451.132812 216.015625 452.375 217.1875 453.859375 217.136719 C 455.34375 217.085938 456.515625 215.832031 456.460938 214.359375 L 456.171875 205.613281 L 462.425781 211.863281 L 462.910156 226.363281 C 462.953125 227.855469 464.203125 229.019531 465.695312 228.964844 C 467.183594 228.917969 468.339844 227.667969 468.289062 226.1875 L 467.996094 217.445312 L 473.402344 222.835938 C 474.921875 224.371094 477.394531 224.371094 478.917969 222.835938 C 480.433594 221.320312 480.433594 218.851562 478.917969 217.324219 L 473.316406 211.734375 L 482.335938 212.152344 C 483.800781 212.210938 485.015625 211.078125 485.050781 209.605469 C 485.074219 208.140625 483.914062 206.898438 482.445312 206.828125 L 467.734375 206.148438 L 461.488281 199.902344 L 470.496094 200.320312 C 471.96875 200.390625 473.183594 199.246094 473.21875 197.777344 C 473.242188 196.316406 472.085938 195.0625 470.613281 194.996094 L 455.90625 194.335938 L 451.863281 190.273438 L 460.882812 190.691406 C 462.34375 190.765625 463.5625 189.621094 463.597656 188.148438 C 463.621094 186.695312 462.457031 185.441406 460.996094 185.367188 L 446.28125 184.707031 L 441.246094 179.664062 L 450.265625 180.078125 C 451.730469 180.144531 452.945312 179.011719 452.984375 177.539062 C 453.007812 176.082031 451.851562 174.832031 450.375 174.761719 L 435.675781 174.09375 L 431.617188 170.042969 L 440.640625 170.457031 C 442.109375 170.519531 443.324219 169.386719 443.359375 167.917969 C 443.390625 166.457031 442.222656 165.207031 440.75 165.132812 L 426.046875 164.46875 L 418.511719 156.929688 C 419.804688 154.96875 420.75 152.757812 421.242188 150.371094 L 430.9375 150.371094 L 445.609375 164.082031 C 446.992188 165.375 449.167969 165.304688 450.460938 163.925781 C 451.757812 162.535156 451.683594 160.355469 450.296875 159.0625 L 441 150.371094 L 448.296875 150.371094 L 462.964844 164.082031 C 464.355469 165.375 466.53125 165.304688 467.820312 163.925781 C 469.113281 162.535156 469.042969 160.355469 467.65625 159.0625 L 458.359375 150.371094 L 472.257812 150.371094 L 483.703125 161.0625 C 484.847656 162.148438 486.648438 162.074219 487.726562 160.9375 C 488.796875 159.777344 488.738281 157.984375 487.585938 156.914062 L 480.597656 150.371094 L 486.648438 150.371094 L 498.085938 161.0625 C 499.238281 162.148438 501.035156 162.074219 502.105469 160.9375 C 503.179688 159.777344 503.121094 157.984375 501.972656 156.914062 L 494.984375 150.371094 L 506.609375 150.371094 C 508.761719 150.371094 510.507812 148.636719 510.507812 146.480469 C 510.507812 144.324219 508.761719 142.574219 506.609375 142.574219 " fill-opacity="1" fill-rule="nonzero"/></g></svg>